<svg width="2757" height="1287" viewBox="0 0 2757 1287" fill="none" xmlns="http://www.w3.org/2000/svg">
<path fill-rule="evenodd" clip-rule="evenodd" d="M28.3176 502.664C291.081 436.803 576.982 365.338 887.685 287.519C1227.28 202.463 1600.9 108.929 2012.61 5.83347C2066.96 -7.77699 2135.95 4.20788 2165.22 32.3994C2218.36 83.598 2271.22 134.539 2323.85 185.228C2376.28 235.709 2428.47 285.989 2480.45 336.073C2508.92 363.517 2485.82 394.788 2429.73 405.631C2004.48 487.827 1618.03 562.522 1266.16 630.536C943.788 692.849 646.901 750.146 373.53 802.99C341.154 809.248 295.963 797.873 272.636 777.625C230.118 740.718 187.435 703.726 144.643 666.615C101.699 629.373 58.6509 591.974 15.3886 554.444C-8.40242 533.806 -2.72141 510.444 28.3176 502.664Z" fill="#242323"/>
<path fill-rule="evenodd" clip-rule="evenodd" d="M156.44 657.635C555.367 557.751 934.242 462.89 1293.96 372.813C1636.13 287.129 1962.79 205.319 2274.18 127.345C2312.02 117.871 2368.29 140.308 2399.09 176.995C2455.2 243.83 2511.3 310.664 2567.37 377.462C2623.51 444.343 2679.62 511.19 2735.77 578.089C2766.64 614.872 2761.88 653.801 2725.3 664.832C2424.58 755.512 2108.69 850.802 1777.56 950.633C1429.47 1055.58 1062.63 1166.13 677.051 1282.39C627.455 1297.34 557.862 1274.22 521.822 1230.98C456.276 1152.35 390.75 1073.73 325.256 995.159C259.776 916.602 194.348 838.004 128.849 759.46C92.9275 716.384 105.148 670.477 156.44 657.635Z" fill="#4F227A"/>
</svg>
